<?xml version="1.0" encoding="UTF-8"?>
<!DOCTYPE svg PUBLIC "-//W3C//DTD SVG 1.1//EN" "http://www.w3.org/Graphics/SVG/1.1/DTD/svg11.dtd">
<!-- Creator: CorelDRAW 2021 (64-Bit) -->
<svg xmlns="http://www.w3.org/2000/svg" xml:space="preserve" width="147.023mm" height="147.023mm" version="1.1" style="shape-rendering:geometricPrecision; text-rendering:geometricPrecision; image-rendering:optimizeQuality; fill-rule:evenodd; clip-rule:evenodd"
viewBox="0 0 3855.86 3855.86"
 xmlns:xlink="http://www.w3.org/1999/xlink"
 xmlns:xodm="http://www.corel.com/coreldraw/odm/2003">
 <defs>
  <style type="text/css">
   <![CDATA[
    .fil0 {fill:none}
    .fil3 {fill:#1B3C68}
    .fil1 {fill:#1B3C68}
    .fil2 {fill:#61E000}
   ]]>
  </style>
 </defs>
 <g id="Layer_x0020_1">
  <metadata id="CorelCorpID_0Corel-Layer"/>
  <rect class="fil0" x="-0" y="-0" width="3855.86" height="3855.86"/>
  <g id="_1654420823440">
   <path class="fil1" d="M2487.48 1953.35l-340.33 -1.66c-33.99,44.99 -43.89,72.49 -120.42,83.09 -311.86,43.22 -309.42,-246.52 -179.2,-317.33 150.92,-82.06 307.9,51.46 318.99,54.14 50.74,12.27 346.17,2.68 419.35,1.64 69.49,-176 83,-480.51 58.62,-685.28 -27.49,-230.82 -149.06,-374.39 -286,-462.38 -374.25,-240.44 -844.69,-73.61 -1000.91,234.06 -157.85,310.89 -145.43,1095.71 370.39,1345.86 93.14,45.17 212.97,63.99 325.89,45.7 166.66,-26.99 388.41,-181.07 433.62,-297.87z"/>
   <path class="fil2" d="M1226.94 1626.24c30.02,-75.9 16.61,-381.6 16.87,-510.76 0.18,-87.01 6.32,-85.85 -61.78,-113.8 16.91,-193.59 162.72,-359.87 256.53,-430.89 142.6,-107.95 302.6,-176.72 520.2,-176.79 414.73,-0.13 712.71,243.99 793.25,593.32 -27.66,47.64 -58.3,19.36 -63.57,99.85 -3.55,54.12 0.71,130.46 0.73,187.21 0.04,104.41 -7.62,255.33 6.58,347.6l89.97 20.06c-5.42,171.32 -82.86,175.09 -238.32,176.05 -133.04,0.83 -294.55,7.67 -424.42,-2.72 -114.24,-140.64 -325.47,-86.53 -317.31,61.13 7.75,140.39 248.23,172.41 315.52,30.38 482.14,3.41 712.29,75.57 753.74,-259.33 90.6,-44.02 140.36,-36.86 146.31,-187.3 2.86,-72.18 6.49,-262.72 -14,-323.2 -49.24,-145.37 -26.65,58.09 -101.55,-238.49 -23.52,-93.13 -62.01,-175.38 -107.64,-245.45 -410.5,-630.36 -1423.5,-560.62 -1718.61,101.11 -43.4,97.32 -46.6,175.67 -78.11,262.02 -27.32,74.89 -90.49,35.39 -90.59,257.47 -0.04,97.99 -16.55,234.97 30.25,305.85 44.7,67.67 190.42,77.89 285.95,46.69z"/>
   <path class="fil3" d="M1111.31 1693.56l0.01 0c153.4,0 278.91,144.48 278.91,321.05l0 1303.18c0,176.58 -125.51,321.05 -278.91,321.05l-0.01 0c-153.4,0 -278.91,-144.47 -278.91,-321.05l0 -1303.18c0,-176.58 125.51,-321.05 278.91,-321.05zm0.01 498.79l0.01 0c32.94,0 59.9,26.94 59.9,59.87l0 1037.03c0,32.93 -26.95,59.87 -59.9,59.87l-0.01 0c-32.95,0 -59.9,-26.94 -59.9,-59.87l0 -1037.03c0,-32.93 26.95,-59.87 59.9,-59.87zm0.01 -209.07c32.43,0 58.72,26.28 58.72,58.7 0,32.42 -26.29,58.7 -58.72,58.7 -32.44,0 -58.73,-26.28 -58.73,-58.7 0,-32.42 26.29,-58.7 58.73,-58.7z"/>
  </g>
 </g>
</svg>
