<svg xmlns="http://www.w3.org/2000/svg" viewBox="0 0 1000 500" width="1000" height="500">
  <!-- World Map - More Realistic Outline - White on Transparent -->
  <g fill="none" stroke="#FFFFFF" stroke-width="1.2">
    <!-- North America -->
    <path d="M119,68 L134,52 L160,48 L183,57 L194,51 L215,74 L221,84 L245,95 L266,101 L270,114 L298,127 L317,139 L321,170 L309,181 L303,198 L291,206 L280,214 L269,229 L267,255 L238,269 L214,276 L181,281 L168,239 L154,231 L142,225 L124,223 L113,225 L88,204 L71,163 L57,120 L73,108 L92,101 Z" />
    
    <!-- Central America -->
    <path d="M214,276 L210,284 L198,290 L189,299 L178,304 L169,315 L177,325 L186,333 L195,334 L220,299 L226,299 Z" />
    
    <!-- South America -->
    <path d="M226,299 L233,312 L249,342 L265,361 L285,378 L294,393 L291,414 L288,426 L271,437 L260,443 L253,439 L242,432 L240,430 L226,410 L217,363 L204,341 L195,334 Z" />
    
    <!-- Europe -->
    <path d="M414,93 L435,86 L455,76 L472,75 L492,83 L506,82 L518,83 L529,83 L540,88 L550,97 L557,107 L550,112 L544,124 L532,125 L514,130 L505,138 L499,149 L478,148 L455,147 L444,142 L431,130 L426,117 L414,93 Z" />
    
    <!-- Africa -->
    <path d="M455,181 L469,175 L477,181 L486,190 L505,195 L526,198 L535,218 L534,228 L520,240 L516,253 L506,270 L497,281 L486,289 L474,310 L462,316 L445,322 L434,318 L412,304 L401,295 L391,281 L386,267 L383,255 L389,234 L397,210 L412,205 L434,200 L450,195 Z" />
    
    <!-- Middle East -->
    <path d="M540,133 L550,138 L561,149 L569,163 L565,181 L553,191 L544,213 L549,228 L558,243 L561,255 L554,259 L546,257 L535,218 L526,198 L505,195 L486,190 L477,181 L469,175 L472,168 L485,165 L501,160 L518,153 L529,145 L540,133 Z" />
    
    <!-- Asia -->
    <path d="M540,88 L559,77 L584,71 L610,69 L632,72 L657,80 L680,88 L711,106 L728,116 L746,129 L762,155 L771,176 L768,190 L760,207 L744,214 L725,214 L699,215 L681,234 L673,247 L652,257 L631,267 L616,273 L597,277 L582,266 L561,255 L558,243 L549,228 L544,213 L553,191 L565,181 L569,163 L561,149 L550,138 L540,133 L529,118 L540,88 Z" />
    
    <!-- India and Southeast Asia -->
    <path d="M673,247 L681,234 L699,215 L725,214 L736,220 L745,232 L747,244 L741,260 L728,271 L710,282 L691,284 L678,274 L670,267 L662,263 L652,257 Z" />
    
    <path d="M728,271 L741,260 L747,244 L756,248 L765,255 L770,265 L769,280 L766,293 L760,303 L747,313 L734,315 L725,304 L712,288 L710,282 Z" />
    
    <!-- Japan -->
    <path d="M778,169 L789,175 L787,186 L782,195 L771,176 L762,155 L766,150 L772,157 Z" />
    
    <path d="M800,197 L810,209 L809,218 L800,225 L789,214 L787,204 L789,197 L796,195 Z" />
    
    <!-- Australia -->
    <path d="M750,318 L760,311 L774,299 L789,300 L803,303 L818,305 L835,318 L848,324 L857,334 L854,348 L846,363 L835,373 L820,381 L806,386 L791,381 L772,375 L757,364 L748,352 L745,346 L748,339 L750,327 Z" />
    
    <!-- New Zealand -->
    <path d="M874,373 L886,377 L894,386 L889,392 L878,390 L868,384 L872,377 Z" />
    <path d="M904,390 L913,395 L915,403 L910,410 L901,406 L899,399 L902,394 Z" />
    
    <!-- Antarctica - More Detailed -->
    <path d="M389,455 L414,458 L444,457 L474,458 L506,459 L529,458 L557,453 L594,443 L619,437 L638,431 L654,438 L671,443 L685,450 L695,458 L704,464" 
      stroke-dasharray="4,4" />
  </g>

  <!-- Island Groups - Adding More Detail -->
  <g fill="none" stroke="#FFFFFF" stroke-width="0.9">
    <!-- Indonesia/Philippines Islands -->
    <path d="M747,313 L752,317 L760,317 L765,321 L770,328 L768,333 L760,335 L754,331 L747,327 L745,322 Z" />
    <path d="M760,335 L767,340 L774,346 L771,351 L765,350 L763,345 L759,343 Z" />
    <path d="M774,346 L779,351 L782,359 L778,362 L774,359 L772,354 Z" />
    
    <!-- Caribbean Islands -->
    <path d="M240,269 L245,273 L244,278 L238,278 L236,274 Z" />
    <path d="M255,280 L260,284 L258,289 L252,288 L250,284 Z" />
  </g>

  <!-- Ocean Texture - Subtle Waves -->
  <g stroke="#FFFFFF" stroke-width="0.3" opacity="0.15">
    <path d="M50,140 Q100,150 150,140 Q200,130 250,140 Q300,150 350,140" />
    <path d="M350,180 Q400,190 450,180 Q500,170 550,180 Q600,190 650,180" />
    <path d="M650,220 Q700,230 750,220 Q800,210 850,220 Q900,230 950,220" />
    <path d="M50,260 Q100,270 150,260 Q200,250 250,260 Q300,270 350,260" />
    <path d="M350,300 Q400,310 450,300 Q500,290 550,300 Q600,310 650,300" />
    <path d="M650,340 Q700,350 750,340 Q800,330 850,340 Q900,350 950,340" />
    <path d="M50,380 Q100,390 150,380 Q200,370 250,380 Q300,390 350,380" />
  </g>

  <!-- Latitude and Longitude Grid Lines - Enhanced for Realism -->
  <g stroke="#FFFFFF" stroke-width="0.3" opacity="0.25">
    <!-- Equator Line Slightly Emphasized -->
    <line x1="0" y1="250" x2="1000" y2="250" stroke-width="0.5" />
    
    <!-- Latitude Lines -->
    <line x1="0" y1="125" x2="1000" y2="125" stroke-dasharray="2,8" />
    <line x1="0" y1="188" x2="1000" y2="188" stroke-dasharray="2,8" />
    <line x1="0" y1="313" x2="1000" y2="313" stroke-dasharray="2,8" />
    <line x1="0" y1="375" x2="1000" y2="375" stroke-dasharray="2,8" />
    
    <!-- Longitude Lines -->
    <line x1="200" y1="0" x2="200" y2="500" stroke-dasharray="2,8" />
    <line x1="400" y1="0" x2="400" y2="500" stroke-dasharray="2,8" />
    <line x1="600" y1="0" x2="600" y2="500" stroke-dasharray="2,8" />
    <line x1="800" y1="0" x2="800" y2="500" stroke-dasharray="2,8" />
  </g>
  
  <!-- Country Markers - Very Subtle Dots -->
  <g fill="#FFFFFF" opacity="0.3">
    <circle cx="180" cy="130" r="0.8" />
    <circle cx="453" cy="112" r="0.8" />
    <circle cx="485" cy="224" r="0.8" />
    <circle cx="664" cy="156" r="0.8" />
    <circle cx="702" cy="252" r="0.8" />
    <circle cx="791" cy="340" r="0.8" />
    <circle cx="256" cy="344" r="0.8" />
  </g>
</svg> 