<svg width="500" height="500" viewBox="0 0 500 500" xmlns="http://www.w3.org/2000/svg">
  <rect width="500" height="500" fill="#f0f0f0"/>
  <circle cx="250" cy="180" r="120" fill="#dddddd"/>
  <rect x="120" y="320" width="260" height="30" rx="10" fill="#e0e0e0"/>
  <rect x="160" y="370" width="180" height="20" rx="10" fill="#e8e8e8"/>
  <rect x="180" y="410" width="140" height="20" rx="10" fill="#e8e8e8"/>
  <path d="M250,260 C205,260 170,225 170,180 C170,135 205,100 250,100 C295,100 330,135 330,180 C330,225 295,260 250,260 Z" fill="#c0c0c0"/>
  <path d="M160,500 L160,390 C160,350 200,310 250,310 C300,310 340,350 340,390 L340,500 Z" fill="#d8d8d8"/>
  <circle cx="220" cy="170" r="15" fill="#b8b8b8"/>
  <circle cx="280" cy="170" r="15" fill="#b8b8b8"/>
  <path d="M220,210 Q250,230 280,210" stroke="#b8b8b8" stroke-width="8" fill="none"/>
</svg> 