<?xml version="1.0" encoding="UTF-8" standalone="no"?>
<svg width="800" height="500" viewBox="0 0 800 500" xmlns="http://www.w3.org/2000/svg">
  <rect width="800" height="500" fill="#f0f6ff"/>
  <g opacity="0.1">
    <rect x="0" y="0" width="800" height="500" fill="#1B3C68"/>
  </g>
  <g transform="translate(150, 200)">
    <path d="M120,20 C120,20 170,0 220,20 C220,20 245,0 270,20 C270,20 300,5 330,30 C330,30 350,10 380,30 C380,30 410,15 440,40 C440,40 460,20 480,40 L480,100 L120,100 Z" fill="#65D80D" opacity="0.7">
      <animate attributeName="opacity" values="0.5;0.7;0.5" dur="5s" repeatCount="indefinite"/>
      <animateTransform attributeName="transform" type="translate" values="0 0;0 -5;0 0" dur="6s" repeatCount="indefinite"/>
    </path>
    <path d="M100,60 C100,60 150,40 200,60 C200,60 225,40 250,60 C250,60 280,45 310,70 C310,70 330,50 360,70 C360,70 390,55 420,80 C420,80 440,60 460,80 L460,140 L100,140 Z" fill="#1B3C68" opacity="0.6">
      <animate attributeName="opacity" values="0.4;0.6;0.4" dur="7s" repeatCount="indefinite"/>
      <animateTransform attributeName="transform" type="translate" values="0 0;0 5;0 0" dur="8s" repeatCount="indefinite"/>
    </path>
  </g>
  <g>
    <circle cx="340" cy="240" r="5" fill="#65D80D" opacity="0.7">
      <animate attributeName="cy" values="300;180" dur="3s" repeatCount="indefinite"/>
      <animate attributeName="opacity" values="0.7;0.1" dur="3s" repeatCount="indefinite"/>
    </circle>
    <circle cx="370" cy="280" r="4" fill="#1B3C68" opacity="0.6">
      <animate attributeName="cy" values="320;200" dur="4s" repeatCount="indefinite"/>
      <animate attributeName="opacity" values="0.6;0.1" dur="4s" repeatCount="indefinite"/>
    </circle>
    <circle cx="400" cy="260" r="6" fill="#65D80D" opacity="0.7">
      <animate attributeName="cy" values="340;220" dur="5s" repeatCount="indefinite"/>
      <animate attributeName="opacity" values="0.7;0.1" dur="5s" repeatCount="indefinite"/>
    </circle>
  </g>
  <g transform="translate(300, 280)">
    <rect x="0" y="0" width="60" height="80" rx="5" fill="#FFFFFF" stroke="#1B3C68" stroke-width="2"/>
    <rect x="10" y="10" width="40" height="5" rx="2" fill="#65D80D"/>
    <rect x="10" y="20" width="40" height="5" rx="2" fill="#65D80D"/>
    <rect x="10" y="30" width="40" height="5" rx="2" fill="#65D80D"/>
    <circle cx="30" cy="60" r="10" fill="#1B3C68">
      <animate attributeName="r" values="10;12;10" dur="2s" repeatCount="indefinite"/>
    </circle>
  </g>
  <g transform="translate(400, 280)">
    <rect x="0" y="0" width="60" height="80" rx="5" fill="#FFFFFF" stroke="#1B3C68" stroke-width="2"/>
    <rect x="10" y="10" width="40" height="5" rx="2" fill="#65D80D"/>
    <rect x="10" y="20" width="40" height="5" rx="2" fill="#65D80D"/>
    <rect x="10" y="30" width="40" height="5" rx="2" fill="#65D80D"/>
    <circle cx="30" cy="60" r="10" fill="#1B3C68">
      <animate attributeName="r" values="10;12;10" dur="2.5s" repeatCount="indefinite"/>
    </circle>
  </g>
  <g transform="translate(370, 180)">
    <path d="M30,80 L30,20 L15,35 M30,20 L45,35" stroke="#1B3C68" stroke-width="4" fill="none">
      <animate attributeName="stroke-width" values="4;5;4" dur="2s" repeatCount="indefinite"/>
    </path>
  </g>
  <rect x="150" y="80" width="500" height="60" rx="10" fill="#ffffff" opacity="0.9"/>
  <text x="400" y="120" font-family="Arial" font-size="24" fill="#1B3C68" text-anchor="middle" font-weight="bold">Cloud Migration Strategies</text>
</svg> 