<?xml version="1.0" encoding="UTF-8" standalone="no"?>
<svg width="800" height="500" viewBox="0 0 800 500" xmlns="http://www.w3.org/2000/svg">
  <rect width="800" height="500" fill="#f0f6ff"/>
  <g opacity="0.1">
    <rect x="0" y="0" width="800" height="500" fill="#1B3C68"/>
  </g>
  
  <!-- Background grid with animating opacity -->
  <g stroke="#1B3C68" stroke-width="0.5" opacity="0.2">
    <animate attributeName="opacity" values="0.1;0.2;0.1" dur="10s" repeatCount="indefinite"/>
    
    <!-- Vertical lines -->
    <line x1="100" y1="100" x2="100" y2="400"/>
    <line x1="200" y1="100" x2="200" y2="400"/>
    <line x1="300" y1="100" x2="300" y2="400"/>
    <line x1="400" y1="100" x2="400" y2="400"/>
    <line x1="500" y1="100" x2="500" y2="400"/>
    <line x1="600" y1="100" x2="600" y2="400"/>
    <line x1="700" y1="100" x2="700" y2="400"/>
    
    <!-- Horizontal lines -->
    <line x1="100" y1="100" x2="700" y2="100"/>
    <line x1="100" y1="150" x2="700" y2="150"/>
    <line x1="100" y1="200" x2="700" y2="200"/>
    <line x1="100" y1="250" x2="700" y2="250"/>
    <line x1="100" y1="300" x2="700" y2="300"/>
    <line x1="100" y1="350" x2="700" y2="350"/>
    <line x1="100" y1="400" x2="700" y2="400"/>
  </g>
  
  <!-- Data visualization elements -->
  <g transform="translate(150, 200)">
    <!-- Chart bars with growing/shrinking animation -->
    <rect x="50" y="50" width="30" height="100" fill="#1B3C68" opacity="0.8">
      <animate attributeName="height" values="100;120;100" dur="5s" repeatCount="indefinite"/>
      <animate attributeName="y" values="50;30;50" dur="5s" repeatCount="indefinite"/>
    </rect>
    
    <rect x="100" y="80" width="30" height="70" fill="#1B3C68" opacity="0.8">
      <animate attributeName="height" values="70;90;70" dur="4s" repeatCount="indefinite"/>
      <animate attributeName="y" values="80;60;80" dur="4s" repeatCount="indefinite"/>
    </rect>
    
    <rect x="150" y="40" width="30" height="110" fill="#1B3C68" opacity="0.8">
      <animate attributeName="height" values="110;130;110" dur="6s" repeatCount="indefinite"/>
      <animate attributeName="y" values="40;20;40" dur="6s" repeatCount="indefinite"/>
    </rect>
    
    <rect x="200" y="70" width="30" height="80" fill="#1B3C68" opacity="0.8">
      <animate attributeName="height" values="80;100;80" dur="5.5s" repeatCount="indefinite"/>
      <animate attributeName="y" values="70;50;70" dur="5.5s" repeatCount="indefinite"/>
    </rect>
    
    <rect x="250" y="90" width="30" height="60" fill="#1B3C68" opacity="0.8">
      <animate attributeName="height" values="60;80;60" dur="4.5s" repeatCount="indefinite"/>
      <animate attributeName="y" values="90;70;90" dur="4.5s" repeatCount="indefinite"/>
    </rect>
  </g>
  
  <!-- Pie chart with rotating segments -->
  <g transform="translate(600, 250)">
    <circle cx="0" cy="0" r="60" fill="#FFFFFF" stroke="#1B3C68" stroke-width="2"/>
    
    <g>
      <animateTransform attributeName="transform" 
                        type="rotate" 
                        values="0 0 0; 360 0 0" 
                        dur="60s" 
                        repeatCount="indefinite"/>
                        
      <path d="M 0,0 L 60,0 A 60,60 0 0,1 30,52 z" fill="#65D80D" opacity="0.8"/>
      <path d="M 0,0 L 30,52 A 60,60 0 0,1 -30,52 z" fill="#1B3C68" opacity="0.6"/>
      <path d="M 0,0 L -30,52 A 60,60 0 0,1 -60,0 z" fill="#65D80D" opacity="0.4"/>
      <path d="M 0,0 L -60,0 A 60,60 0 0,1 0,-60 z" fill="#1B3C68" opacity="0.8"/>
      <path d="M 0,0 L 0,-60 A 60,60 0 0,1 60,0 z" fill="#65D80D" opacity="0.6"/>
    </g>
  </g>
  
  <!-- Line graph with animated data point -->
  <g transform="translate(150, 400)">
    <polyline points="0,0 50,-30 100,-50 150,-20 200,-60 250,-40 300,-70" 
              fill="none" stroke="#65D80D" stroke-width="3"/>
    
    <!-- Animated data point moving along the line -->
    <circle cx="0" cy="0" r="6" fill="#1B3C68">
      <animate attributeName="cx" values="0;50;100;150;200;250;300;0" dur="8s" repeatCount="indefinite"/>
      <animate attributeName="cy" values="0;-30;-50;-20;-60;-40;-70;0" dur="8s" repeatCount="indefinite"/>
    </circle>
  </g>
  
  <!-- Data flow particles -->
  <g>
    <circle cx="340" cy="240" r="4" fill="#65D80D" opacity="0.7">
      <animate attributeName="cx" values="340;370;340" dur="5s" repeatCount="indefinite"/>
      <animate attributeName="cy" values="240;230;240" dur="5s" repeatCount="indefinite"/>
      <animate attributeName="opacity" values="0.7;0.3;0.7" dur="5s" repeatCount="indefinite"/>
    </circle>
    
    <circle cx="500" cy="280" r="3" fill="#1B3C68" opacity="0.6">
      <animate attributeName="cx" values="500;520;500" dur="6s" repeatCount="indefinite"/>
      <animate attributeName="cy" values="280;300;280" dur="6s" repeatCount="indefinite"/>
      <animate attributeName="opacity" values="0.6;0.2;0.6" dur="6s" repeatCount="indefinite"/>
    </circle>
    
    <circle cx="200" cy="320" r="5" fill="#65D80D" opacity="0.5">
      <animate attributeName="cx" values="200;220;200" dur="7s" repeatCount="indefinite"/>
      <animate attributeName="cy" values="320;300;320" dur="7s" repeatCount="indefinite"/>
      <animate attributeName="opacity" values="0.5;0.2;0.5" dur="7s" repeatCount="indefinite"/>
    </circle>
    
    <circle cx="600" cy="200" r="4" fill="#1B3C68" opacity="0.7">
      <animate attributeName="cx" values="600;580;600" dur="5.5s" repeatCount="indefinite"/>
      <animate attributeName="cy" values="200;180;200" dur="5.5s" repeatCount="indefinite"/>
      <animate attributeName="opacity" values="0.7;0.3;0.7" dur="5.5s" repeatCount="indefinite"/>
    </circle>
  </g>
  
  <rect x="150" y="80" width="500" height="60" rx="10" fill="#ffffff" opacity="0.9"/>
  <text x="400" y="120" font-family="Arial" font-size="24" fill="#1B3C68" text-anchor="middle" font-weight="bold">Modern Data Backup Solutions</text>
</svg> 